<svg id="Capa_1" enable-background="new 0 0 512 512" height="512" viewBox="0 0 512 512" width="512" xmlns="http://www.w3.org/2000/svg"><path d="m498.324 232.667c-60.875 40.141-121.749-40.142-182.624 0 0-19.115 0-107.863 0-126.978 60.875-40.142 121.749 40.142 182.624 0z" fill="#90dfc3"/><path d="m68.263 418.305s-24.268 7.232-32.594-1.094 0-29.684 0-29.684l41.228-16.871z" fill="#f1b986"/><path d="m307.97 88.637h15.453v423.363h-15.453z" fill="#aa593d"/><path d="m307.97 88.637h6.356v423.363h-6.356z" fill="#934d36"/><path d="m331.626 303.213c-1.978 5.038-4.564 8.839-6.367 9.344-17.07 4.78-29.7-7.17-29.7-7.17l-4.7-7.922 3-14.268s17.06-15.02 32.76-8.19c10.302 4.481 8.767 18.605 5.007 28.206z" fill="#f1d0a5"/><path d="m198.959 313.752s15.247 24.292 18.543 56.907l1.35 16.864s-49.624 40.847-75.069 15.401c-25.456 25.446-75.08-15.401-75.08-15.401h-33.038c0-92.366 37.509-122.88 44.009-127.475h128.206c41.609 14.278 85.979 23.148 85.979 23.148l1.092 14.268.608 7.922c-26.28 15.814-96.6 8.366-96.6 8.366z" fill="#b9e4ef"/><path d="m68.709 387.521c0-5.779.544-11.527 1.345-16.865 2.32-15.448 6.846-27.519 6.846-27.519l4.473 40.635" fill="#7ad0df"/><path d="m207.589 487.888-5.577 12.642-45.623-12.642s12.831-59.514-12.615-84.97c-25.446 25.456-12.605 84.97-12.605 84.97h-51.2c-16.382-41.982-11.26-100.367-11.26-100.367 0-5.779.544-11.527 1.345-16.865h147.451l1.345 16.865c-.001 0 5.121 58.385-11.261 100.367z" fill="#665e66"/><path d="m97.191 260.045c-33.459 33.459-43.07 66.597-42.341 127.476h-19.185c0-92.371 37.507-122.877 44.004-127.476z" fill="#7ad0df"/><path d="m95.118 487.888-12.485 6.083-2.676-6.083c-16.382-41.982-11.26-100.367-11.26-100.367 0-5.779.544-11.527 1.345-16.865h24.296c-5.153 19.277-11.527 59.299.78 117.232z" fill="#454045"/><path d="m169.741 487.888h-13.365s12.841-59.514-12.605-84.97c25.97 0 39.325 44.713 25.97 84.97z" fill="#454045"/><path d="m160.273 291.167h-32.992l-5.841-39.616h44.674z" fill="#ce4529"/><path d="m260.938 143.239-157.795.676-78.357.33c-5.973-54.54-23.31-125.368 40.387-137.991 15.293-3.033 29.065-4.833 41.443-5.678 82.91-5.627 103.534 31.811 103.534 31.811s15.006-13.181 31.321-11.837c5.897.482 11.972 2.873 17.566 8.466 29.504 29.504 1.901 114.223 1.901 114.223z" fill="#aa593d"/><path d="m241.471 20.55c-19.382 13.316-32.064 53.161-37.936 75.873-5.745-23.134 1.276-48.599 6.616-64.035-.001-.001 15.005-13.182 31.32-11.838z" fill="#934d36"/><path d="m94.407 85.134 8.736 58.78-78.357.33c-5.973-54.539-23.31-125.367 40.387-137.99 15.293-3.033 29.065-4.833 41.443-5.678 0 .008-.008.008-.008.008-31.896 19.619-22.044 54.565-12.201 84.55z" fill="#934d36"/><path d="m250.497 187.303h.149c12.833 0 23.232-10.407 23.232-23.232 0-12.833-10.399-23.241-23.232-23.241-.167 0-.334 0-.501.009h-212.736c-.167-.009-.334-.009-.501-.009-12.833 0-23.232 10.407-23.232 23.241 0 12.825 10.399 23.232 23.232 23.232h.149" fill="#f1b986"/><path d="m250.723 169.515c0 12.234-.313 24.477-.938 36.711-1.563 30.586-26.04 54.936-56.642 56.381-21.393 1.014-42.794 1.36-64.188 1.056h-.008c-11.516-.161-23.024-.515-34.54-1.056-30.594-1.445-55.071-25.795-56.643-56.381-1.115-21.799-1.234-43.589-.363-65.387h.008c11.93-4.419 19.027-18.157 23.243-33.433 4.326-15.673 19.34-24.24 33.754-22.272 5.619.769 11.153 3.143 15.918 7.317 9.573 8.381 21.511 12.572 33.45 12.572s23.885-4.191 33.458-12.572c5.931-5.196 13.037-7.596 20.033-7.596 13.054 0 25.719 8.365 29.639 22.551 4.208 15.276 11.305 29.014 23.243 33.433.39 9.564.576 19.12.576 28.676z" fill="#f1d0a5"/><path d="m128.946 263.663c-11.516-.161-23.024-.515-34.54-1.056-30.594-1.445-55.071-25.795-56.643-56.381-1.115-21.799-1.234-43.589-.363-65.387h.008c11.93-4.419 19.027-18.157 23.243-33.433 4.326-15.673 19.34-24.24 33.754-22.272-10.94 97.697.002 177.456 34.541 178.529z" fill="#f1b986"/><path d="m143.777 218.768c-12.21 0-23.482-7.129-28.718-18.161-1.829-3.855-.187-8.464 3.668-10.293 3.855-1.83 8.463-.187 10.293 3.668 2.691 5.67 8.483 9.334 14.757 9.334s12.066-3.664 14.758-9.334c1.83-3.855 6.438-5.497 10.293-3.667 3.855 1.829 5.497 6.438 3.667 10.293-5.236 11.031-16.509 18.16-28.718 18.16z" fill="#df6b57"/><path d="m94.309 141.477c-5.353 0-9.708 6.475-9.708 14.433s4.355 14.433 9.708 14.433 9.708-6.474 9.708-14.433-4.355-14.433-9.708-14.433z" fill="#454045"/><path d="m193.245 141.477c-5.353 0-9.708 6.475-9.708 14.433s4.355 14.433 9.708 14.433 9.708-6.474 9.708-14.433-4.354-14.433-9.708-14.433z" fill="#454045"/><path d="m136.056 318.983h15.453v51.674h-15.453z" fill="#7ad0df"/><path d="m127.281 291.167h32.992l5.841 39.616-22.337 16.015-22.337-16.015z" fill="#df6b57"/><path d="m64.608 512h66.561v-24.108h-42.453c-13.314 0-24.108 10.794-24.108 24.108z" fill="#aa593d"/><path d="m104.086 487.888c-13.313 0-24.112 10.798-24.112 24.112h-15.366c0-13.313 10.788-24.112 24.101-24.112z" fill="#934d36"/><path d="m222.946 512h-66.561v-24.108h42.453c13.315 0 24.108 10.794 24.108 24.108z" fill="#aa593d"/><path d="m295.559 305.387c-26.28 15.813-96.6 8.365-96.6 8.365l-5.903-13.341s54.023 11.95 101.895-2.946z" fill="#7ad0df"/><path d="m331.626 303.213c-1.978 5.038-4.564 8.839-6.367 9.344-17.07 4.78-29.7-7.17-29.7-7.17l-.608-7.922s18.574 9.467 36.675 5.748z" fill="#f1b986"/></svg>